PathFileType	4	(X/Y/Z)	C:/Users/beibeiliu/ov580/test_trc/User2\sequence.28_training_dense_left.trc
DataRate	CameraRate	NumFrames	NumMarkers	Units	OrigDataRate	OrigDataStartFrame	OrigNumFrames
120	120	23	19	mm	120	193	256
Frame#	Time	ThumbCMC			ThumbMCP			ThumbIP			ThumbTip			IndexMCP			IndexPIP			IndexTip			MiddleMCP			MiddlePIP			MiddleTip			RingMCP			RingPIP			RingTip			PinkyMCP			PinkyPIP			PinkyTip			BackHand1			BackHand2			BackHand3	
		X0	Y0	Z0	X1	Y1	Z1	X2	Y2	Z2	X3	Y3	Z3	X4	Y4	Z4	X5	Y5	Z5	X6	Y6	Z6	X7	Y7	Z7	X8	Y8	Z8	X9	Y9	Z9	X10	Y10	Z10	X11	Y11	Z11	X12	Y12	Z12	X13	Y13	Z13	X14	Y14	Z14	X15	Y15	Z15	X16	Y16	Z16	X17	Y17	Z17	X18	Y18	Z18	
192	1.6	-147.689	-17.1508	101.354	-119.217	-21.5777	74.8445	-104.104	-30.4904	44.7426	-100.491	-45.3022	18.3975	-171.299	7.48416	24.0393	-167.791	12.5901	0.46039	-162.041	25.3537	-27.7677	-161.641	-24.7102	12.4067	-127.79	-40.2653	6.21154	-117.685	-51.2285	43.9093	-153.53	-53.6557	14.9287	-125.114	-62.5771	27.419	-134.741	-55.26	63.3932	-160.884	-75.0626	23.8775	-130.857	-76.5541	38.6773	-143.645	-67.1975	69.8703	-201.436	-51.5835	63.3097	-208.075	-55.5602	98.2424	-192.663	-22.4933	89.4949	
193	1.60833	-145.37	-19.4007	101.667	-120.548	-29.3065	73.2498	-106.459	-38.1847	39.2009	-104.868	-50.9425	15.7514	-169.806	7.06548	22.5233	-165.827	14.3474	-1.22872	-166.23	19.2976	-29.7853	-160.744	-26.1314	8.40922	-132.746	-45.1276	3.52884	-123.909	-57.2861	42.0302	-159.366	-56.5954	12.976	-132.218	-66.6902	24.7709	-136.466	-63.5429	58.4404	-170.023	-71.1987	24.2276	-138.692	-80.4419	36.2994	-150.214	-68.4148	69.4029	-204.062	-47.9179	60.9703	-213.428	-53.4158	97.2791	-189.708	-18.0907	89.6905	
194	1.61667	-143.06	-25.6024	94.9036	-118.493	-34.9195	68.0548	-110.189	-47.6553	38.2363	-119.049	-60.5165	12.9707	-169.181	3.34921	22.9029	-167.093	12.266	-5.30477	-167.228	18.0285	-27.3265	-166.105	-26.7549	8.97422	-138.973	-52.4046	1.98068	-132.439	-65.1491	37.5168	-171.717	-55.5848	13.6363	-145.199	-73.606	18.2388	-145.018	-66.9226	57.9326	-181.546	-72.5255	23.2266	-150.107	-82.7479	34.3323	-155.199	-71.7314	64.7099	-207.627	-42.585	66.5911	-210.429	-47.1133	101.144	-187.44	-17.9945	92.4048	
195	1.625	-139.578	-32.8845	96.186	-120.722	-44.7503	66.7031	-116.124	-55.8931	30.6701	-125.926	-69.5715	9.65811	-166.946	1.39159	25.971	-169.287	9.47445	-5.24898	-170.666	14.52	-29.6163	-172.125	-28.4965	7.27496	-153.952	-56.4652	-3.89477	-141.189	-70.0028	36.2308	-183.199	-56.756	13.4504	-160.098	-79.1312	14.2589	-153.954	-76.2498	50.6774	-191.556	-70.9901	22.9949	-165.354	-86.7193	27.0524	-162.517	-76.3039	60.6241	-208.811	-35.3281	69.1284	-209.142	-39.2215	101.749	-182.71	-15.2854	88.9117	
196	1.63333	-141.731	-39.4174	92.3744	-124.052	-53.1478	64.3249	-121.649	-66.0928	29.3266	-140.714	-75.405	3.1255	-165.867	-0.650573	24.9894	-169.956	5.12662	-1.01099	-175.253	11.9909	-29.7105	-179.075	-28.7312	9.93499	-164.004	-62.1352	-4.12304	-148.6	-75.6969	31.9311	-191.493	-54.5861	11.8092	-168.706	-78.5236	12.7769	-162.267	-77.7403	47.5468	-203.13	-67.0601	24.9657	-179.07	-89.5734	24.9109	-172.131	-84.6085	57.5172	-211.239	-33.1489	72.0511	-211.452	-35.4583	106.608	-176.724	-16.0933	93.513	
197	1.64167	-138.858	-43.0388	90.0215	-127.915	-60.7402	61.5779	-133.315	-72.7809	25.2682	-149.405	-81.9775	3.12285	-166.358	-2.67823	22.2169	-171.558	4.60174	-5.28719	-174.435	11.0463	-28.7366	-185.817	-30.3874	9.22574	-171.162	-58.8643	-8.01236	-157.82	-80.9255	27.1512	-198.574	-52.1307	12.6932	-181.662	-78.3849	9.21796	-174.006	-82.4942	44.2912	-212.26	-63.9033	25.7556	-192.239	-89.6419	22.8972	-179.173	-89.9248	51.7508	-209.938	-30.117	73.2451	-208.996	-35.4412	110.431	-177.648	-18.4073	89.7142	
198	1.65	-139.46	-47.653	90.8965	-134.498	-64.6141	58.1997	-138.781	-77.9452	25.8804	-159.414	-84.3649	3.29288	-168.548	-7.68322	23.8208	-169.793	3.33751	-4.26775	-178.848	9.41543	-29.8399	-190.56	-31.8754	5.72988	-181.99	-64.4915	-8.00282	-166.47	-83.5738	23.5078	-207.964	-51.5128	14.6869	-193.928	-81.7958	9.47754	-179.032	-84.2133	40.5574	-221.729	-61.3192	29.37	-203.876	-89.6179	20.397	-188.842	-92.7505	49.067	-213.349	-28.8249	72.6156	-208.285	-32.8401	108.985	-177.089	-19.0207	92.5487	
199	1.65833	-146.949	-49.4986	86.0368	-139.904	-65.5527	54.0587	-147.727	-79.3292	19.4546	-165.535	-86.9469	4.44985	-174.965	-8.42111	19.91	-176.561	-0.825155	-5.35833	-181.265	7.6611	-32.0975	-192.704	-30.7726	6.13555	-188.896	-61.5565	-9.40315	-176.882	-85.9734	20.4708	-210.401	-50.5001	14.493	-199.258	-79.1382	7.66153	-186.251	-85.4657	42.0774	-227.218	-62.4641	25.747	-210.545	-86.6984	19.1821	-197.578	-93.2741	48.5814	-210.976	-28.6352	73.6278	-210.034	-31.4252	109.855	-174.86	-17.1595	87.4726	
200	1.66667	-146.946	-50.5685	83.7682	-141.947	-67.591	51.8451	-150.598	-81.8248	18.622	-173.283	-87.2255	4.37424	-178.804	-9.86684	18.1848	-179.485	-2.7687	-5.30231	-185.621	4.83531	-33.692	-200.193	-31.8969	10.678	-190.348	-65.1797	-10.4432	-182.53	-86.5341	21.5087	-212.959	-48.9869	16.9669	-206.531	-79.4477	6.48381	-188.78	-86.0693	40.2995	-229.694	-59.0791	30.9047	-216.211	-86.8347	19.9267	-200.625	-93.3882	50.3686	-214.922	-30.234	78.4239	-211.709	-32.1046	111.628	-180.125	-20.4516	91.8815	
201	1.675	-146.688	-52.306	82.7857	-138.966	-71.7673	52.3781	-151.633	-83.1032	21.4082	-173.718	-90.3518	3.36894	-180.491	-14.2971	19.9218	-185.613	-5.14967	-9.58331	-190.609	-0.583899	-32.4483	-198.845	-31.593	8.46125	-195.007	-66.4171	-8.98778	-184.577	-87.933	20.9279	-220.251	-51.7781	14.5741	-210.389	-82.805	9.13484	-194.197	-88.349	42.6892	-234.454	-59.248	30.432	-219.771	-89.9898	20.4952	-205.155	-93.2427	48.1274	-216.371	-29.1581	74.9894	-208.515	-31.268	112.732	-178.809	-20.5454	91.6307	
202	1.68333	-146.409	-55.2021	87.128	-146.632	-70.202	51.938	-155.966	-83.0495	20.7705	-174.426	-91.6584	0.824502	-176.26	-16.3798	20.6155	-182.029	-7.14753	-9.24631	-192.017	-4.16685	-32.7458	-197.822	-32.0355	10.1004	-193.907	-66.106	-11.231	-187.999	-88.5034	19.7381	-215.322	-49.3909	14.4776	-209.614	-77.5828	3.65273	-194.882	-89.7713	35.4309	-232.497	-59.4399	28.0617	-222.785	-85.9138	17.0621	-205.91	-96.6393	45.0522	-213.287	-30.3661	74.3595	-208.229	-29.7296	110.109	-178.855	-23.2056	86.5114	
203	1.69167	-145.662	-55.6277	85.2202	-142.178	-72.6752	50.5544	-152.715	-83.7802	18.2957	-172.61	-88.7061	3.1405	-174.903	-17.1658	20.9025	-175.151	-8.5939	-5.51153	-185.152	-4.47372	-32.9731	-195.165	-31.591	10.7799	-191.127	-61.4832	-13.0552	-181.162	-86.5426	15.0219	-215.96	-48.1105	14.9092	-205.74	-77.8973	2.48857	-195.489	-92.0917	34.6099	-229.465	-56.4293	31.3604	-218.608	-84.4299	13.9542	-204.874	-96.1642	37.8879	-214.895	-31.8725	74.0817	-212.789	-32.4065	111.29	-174.573	-24.439	87.6363	
204	1.7	-147.157	-56.919	89.4872	-138.092	-71.9031	55.3854	-147.151	-82.5792	26.0785	-167.441	-86.6113	1.84134	-163.748	-14.9392	19.9672	-169.767	-7.9477	-6.16479	-172.05	-3.03383	-34.9535	-191.339	-27.7203	11.1876	-188.123	-51.7067	-16.1158	-181.852	-84.6234	8.46232	-206.626	-41.7924	14.0561	-201.095	-70.1749	-3.07597	-192.999	-89.8232	22.1324	-224.418	-52.6666	29.8163	-215.039	-77.8203	8.35984	-203.942	-98.6641	30.6458	-207.893	-31.5633	75.4301	-207.142	-33.2166	109.196	-174.302	-25.0749	91.3988	
205	1.70833	-138.981	-58.5686	92.8107	-129.799	-73.4587	63.2049	-138.844	-80.278	25.9618	-153.902	-85.5988	4.23841	-154.19	-17.3292	27.9326	-149.038	-5.53074	-1.97633	-152.038	-1.52142	-29.5564	-178.279	-19.9898	14.8119	-179.519	-38.1134	-18.6211	-172.214	-77.5686	-6.34825	-200.909	-33.7562	12.0451	-194.463	-57.69	-9.64689	-182.305	-82.6629	9.50078	-213.23	-46.2576	25.2143	-206.293	-68.18	2.9469	-193.534	-91.9873	17.975	-202.927	-30.4817	74.8941	-209.237	-35.2006	108.125	-171.821	-27.222	92.9884	
206	1.71667	-136.082	-61.2441	96.8218	-122.556	-75.8552	68.9682	-125.866	-83.5507	34.1047	-140.34	-86.4418	6.84276	-142.92	-16.8696	32.0326	-130.835	-3.92916	3.6244	-126.499	0.641912	-22.9002	-165.609	-13.1624	20.1821	-166.441	-20.5972	-16.2801	-158.336	-57.4779	-24.1778	-189.42	-25.4166	19.7131	-180.903	-37.884	-10.7493	-175.036	-73.8007	-0.940688	-205.314	-42.7606	30.449	-194.375	-54.8573	0.0886988	-182.235	-85.6473	9.0718	-194.721	-30.9313	74.431	-204.72	-34.7241	108.799	-162.661	-29.1997	93.1682	
207	1.725	-132.353	-63.0458	104.505	-113.297	-79.3726	78.1066	-108.39	-87.183	41.9903	-116.278	-92.6456	15.8179	-126.947	-15.9138	38.1126	-113.207	-5.06363	15.5782	-105.343	0.681255	-10.6708	-154.884	-8.19407	28.1147	-149.361	-3.29423	-7.0647	-142.723	-32.4948	-34.2498	-173.076	-18.5634	25.6896	-171.199	-22.0177	-6.002	-159.201	-54.835	-12.4026	-197.961	-36.122	29.9426	-186.782	-41.5641	-1.57168	-175.851	-73.9369	-3.01791	-187.614	-32.388	76.0739	-197.971	-32.837	105.933	-159.463	-31.0862	99.9893	
208	1.73333	-127.982	-64.3805	111.249	-108.553	-77.9383	85.0246	-94.3424	-89.6801	52.7404	-97.7558	-95.7735	23.4606	-119.335	-16.0391	43.2379	-99.7499	-3.7146	23.2928	-91.1759	2.7338	-1.0955	-146.671	-7.26809	36.3755	-135.557	4.6033	1.97844	-127.679	-10.3735	-34.6182	-169.721	-16.1453	31.4257	-155.145	-14.7072	-1.07272	-146.009	-44.2343	-17.9642	-185.532	-33.0899	35.2865	-174.811	-34.0057	1.9639	-164.472	-56.2881	-8.98371	-182.799	-33.5436	79.28	-195.124	-34.8055	108.179	-156.409	-30.9959	101.752	
209	1.74167	-124.292	-64.305	115	-103.12	-79.5493	94.2768	-86.5904	-89.0838	59.0563	-83.0533	-97.0055	36.4419	-112.86	-17.8253	51.6573	-95.5876	-4.78414	28.5909	-83.8171	4.54373	3.6176	-141.083	-6.12065	40.0678	-128.286	9.49954	7.58008	-114.179	6.67725	-24.8974	-160.031	-15.2617	37.4563	-148.971	-8.00251	6.48778	-136.202	-33.8856	-18.1127	-182.917	-32.1733	37.7098	-172.536	-27.8707	5.86002	-155.863	-50.1369	-11.4476	-178.912	-31.4658	81.0862	-186.29	-33.049	108.47	-152.525	-29.6283	107.12	
210	1.75	-120.053	-62.0223	115.733	-100.421	-79.3755	96.6966	-83.5833	-89.0335	66.8891	-71.8346	-98.4272	43.5553	-104.318	-15.4302	54.3662	-87.3304	-3.51519	32.806	-79.5103	4.59165	10.0351	-134.164	-4.517	42.1398	-122.855	8.98446	16.027	-112.146	13.3488	-22.25	-158.286	-13.6583	37.8541	-145.152	-7.44194	11.2411	-132.523	-28.6559	-14.688	-181.058	-30.6705	41.9335	-168.113	-24.8361	9.65457	-151.123	-41.8282	-9.29702	-174.407	-29.6687	86.8101	-187.495	-34.675	115.364	-145.743	-29.0988	107.112	
211	1.75833	-121.139	-63.5241	117.611	-99.195	-78.2915	95.1383	-77.9478	-90.7294	69.2951	-69.4849	-100.371	51.391	-102.439	-15.559	55.3912	-89.6246	-5.00333	34.6426	-77.0165	6.10146	9.09592	-134.587	-5.66835	44.1247	-122.235	8.95251	17.4507	-112.482	15.4355	-19.5632	-155.967	-10.8317	37.86	-143.655	-7.29438	8.54853	-131.547	-32.1009	-14.8003	-176.925	-27.7486	42.0373	-166.721	-24.2167	14.0919	-151.123	-38.7654	-7.12767	-175.05	-28.4895	84.1408	-185.124	-32.4809	113.173	-141.845	-27.8568	110.498	
212	1.76667	-114.966	-64.0402	117.728	-94.8489	-80.827	100.045	-76.6452	-90.8474	69.8213	-66.6914	-101.587	52.0253	-104.064	-17.0613	52.9984	-89.5029	-5.71109	33.6825	-76.8683	4.17334	9.63492	-130.643	-8.1316	45.4623	-125.394	8.97501	13.3981	-112.595	15.3269	-18.3506	-155.632	-12.5085	40.7858	-144.051	-8.67385	8.1941	-135.443	-30.5138	-12.2322	-177.827	-31.6003	45.5744	-168.292	-23.2525	13.6433	-158.572	-40.6489	-8.32552	-175.212	-30.1626	85.674	-184.746	-31.8421	116.808	-145.377	-30.6815	106.934	
213	1.775	-120.905	-63.8583	115.227	-95.5305	-81.8891	96.5073	-78.7909	-90.8584	68.2836	-62.1885	-102.27	48.4788	-108.238	-16.6231	46.4145	-93.3297	-6.78409	27.6602	-87.1009	2.03752	4.18721	-135.311	-5.22944	37.2796	-129.049	7.70682	11.7949	-124.436	14.3338	-21.6723	-160.656	-12.9821	38.7047	-150.563	-8.74405	6.4148	-140.977	-33.3175	-13.274	-180.258	-29.9994	42.6615	-171.035	-24.717	11.1029	-162.171	-44.1634	-12.1846	-176.558	-29.6686	83.5931	-184.333	-32.8035	114.491	-142.922	-31.5613	108.263	
214	1.78333	-120.555	-63.834	110.806	-99.3801	-81.0331	88.7621	-81.8511	-93.8798	63.2825	-70.6085	-106.279	47.1898	-113.885	-19.1107	41.2531	-104.525	-9.77229	18.7235	-93.336	0.24463	-6.23077	-142.625	-9.60122	36.0418	-134.318	6.28955	3.22252	-131.936	12.5146	-28.3159	-168.252	-15.256	35.1596	-162.639	-11.2031	3.92564	-155.12	-41.7802	-17.0259	-187.936	-30.7677	41.9111	-181.894	-28.2891	7.12019	-173.965	-51.3859	-13.5613	-176.716	-27.8502	81.3926	-182.762	-31.8486	113.688	-146.563	-28.7543	103.141	
